<svg xmlns="http://www.w3.org/2000/svg" width="1024" height="1024">
    <path d="M0 0h1024v1024H0V0z" />
    <path
        d="M510.25 150.75l2.238-.063c7.898-.055 13.047 2.816 19.512 7.313l2.563 1.438c3.884 2.49 6.941 4.846 8.25 9.375L543 171h2l.586 5.762c.345 2.317.345 2.317 1.434 4.644 2.22 5.874 1.815 13.103-.332 18.969L545 204l-1.188 3c-3.29 5.446-7.422 9.976-13.312 12.5l-2.5.5v2l-5 2c-.055 2.02-.093 4.041-.125 6.063l-.07 3.41c.21 3.798 1.115 6.886 2.195 10.527.703 3.904 1.239 7.836 1.768 11.768.315 2.094.765 4.166 1.232 6.232 5.64 3.76 12.115 3.324 18.723 3.719 2.576.22 4.813.544 7.277 1.281v2l2.273.516c9.036 2.14 17.635 4.226 24.727 10.484l2.063 1c2.453 1.266 4.027 3.026 5.937 5 2.58 1.29 4.683 1.28 7.566 1.465l3.413.236c2.361.156 4.723.31 7.085.461 5.813.406 11.387.945 17.043 2.377 2.938.716 5.896 1.078 8.893 1.461v2l3.926-.148c5.065.002 9.44 1.06 14.261 2.523l2.327.672c3.256.949 6.473 1.948 9.677 3.062 2.871.91 5.577 1.371 8.559 1.766 5.852.911 10.853 2.76 16.25 5.125l3 1v2l8 1 1 3c1.988.7 3.991 1.36 6 2 2.577 1.334 5.033 2.85 7.5 4.375l1.934 1.172c5.78 3.523 11.365 7.183 16.629 11.453l2.472 2 2.465 2 2.684 2.098c2.529 2.077 4.306 4.326 6.316 6.902l2.5 2.5c6.5 6.5 6.5 6.5 6.5 9.5h2c1.402 1.793 1.402 1.793 2.938 4.188l1.597 2.488L763 367l1.875 2.875C766 372 766 372 766 375l1.875.781c2.415 1.385 2.982 2.228 4.125 4.719l.984 2.14L774 385l1.14 2.61c1.731 4.119 2.86 6.85 2.86 11.39h2l.519 1.605c.78 2.404 1.568 4.806 2.356 7.208l.816 2.525.801 2.432.73 2.237c.799 2.256.799 2.256 2.778 4.993l3 1 1.25 1.375c2.59 2.405 5.473 3.327 8.75 4.625v2l1.758.043c5.925.362 9.045 1.468 13.242 5.957 1.48 2.274 2.715 4.602 4 7l2 2.313c2.41 3.238 3.565 6.488 4.875 10.285 1.291 2.758 2.979 4.269 5.125 6.402 4.34 8.83 3.624 19.84 3.842 29.452.13 2.693.13 2.693.663 5.912.493 3.618.624 7.057.628 10.706l.004 3.965-.007 2.036c-.005 2.056 0 4.111.007 6.167l-.004 3.957-.004 3.595c-.116 2.876-.513 5.41-1.129 8.21a91.7 91.7 0 00-.316 3.988l-.127 2.139-.12 2.186-.13 2.244A1929.02 1929.02 0 00835 551h-2l-.148 1.793c-.417 4.398-.902 8.176-2.852 12.207h-2l-.621 2.082-.817 2.73-.808 2.708A215.647 215.647 0 01824 578h-2v2h-2l-1 4h-2l-.063 1.75c-1.476 3.543-4.563 4.68-7.937 6.25l-3 1v2c-2.08.842-4.164 1.673-6.25 2.5l-3.516 1.406C793 600 793 600 789 600c-3.969 7.553-6.683 15.82-9.309 23.922-1.13 3.398-2.414 6.733-3.691 10.078h-2l-.313 2.688c-.72 3.473-1.75 5.372-3.687 8.312a381.302 381.302 0 00-2.188 3.813L766 652h-2l-1 5h-2l-.79 2.219c-1.236 2.842-2.645 4.875-4.585 7.281l-1.879 2.34L752 671l-2.313 3.063L748 676h-2v2h-2v2c-8.451 8.987-24.605 23.207-37 25v2l-3.246 1.242-4.192 1.633-2.142.816c-3.92 1.29-3.92 1.29-6.42 4.309h-3v2a463.78 463.78 0 01-3.813 1.5l-2.144.844C680 720 680 720 677 720v2l-2.09.516c-5.631 1.452-10.81 3.15-16.035 5.714C657 729 657 729 654 729v2l-2.273.516c-5.845 1.384-11.36 2.98-16.891 5.316-2.234.92-4.468 1.784-6.734 2.617l-2.11.776c-1.369.501-2.738.999-4.108 1.493-3.346 1.232-6.514 2.572-9.67 4.235-4.97 2.548-10.212 4.119-15.527 5.797-12.07 3.913-23.638 8.645-35.21 13.828-5.971 2.617-10.946 4.095-17.477 4.422v2l-8 2v2c-4.258 2.032-8.264 3.343-12.875 4.375-4.884 1.153-8.577 2.846-12.84 5.43-3.42 1.788-6.989 2.592-10.719 3.515-3.356.89-6.407 2.25-9.566 3.68-5.403 2.335-10.63 3.567-16.434 4.527-2.97.547-5.743 1.405-8.566 2.473v2c-3.248 1.923-5.744 2.297-9.5 2.313l-2.844.05c-3.12-.426-4.447-1.139-6.656-3.363-1.082-3.18-1.121-6.163-1.114-9.503v-3.336l.016-3.583.005-3.682c.005-3.882.018-7.764.03-11.646.006-2.632.01-5.263.014-7.895.011-6.451.028-12.903.049-19.355h-2l-1.063-1.875c-4.604-5.05-14.329-4.6-20.812-5.188a1312.81 1312.81 0 01-4.992-.472l-2.191-.2C412 734 412 734 409 733a432.932 432.932 0 00-5.497-.494c-11.356-.975-22.038-3.748-32.988-6.815a268.253 268.253 0 00-7.015-1.816C360 723 360 723 357.125 722c-2.738-.876-5.305-1.428-8.125-1.938-4.12-.792-7.307-2.019-11-4.062a131.678 131.678 0 00-14.25-5.813c-8.402-2.998-16.467-6.793-22.75-13.187a363.8 363.8 0 00-6.063-4.063c-6.648-4.567-12.356-9.94-18.062-15.625l-2.477-2.447C264 664.319 264 664.319 264 659h-2c-4.109-5.87-7.216-12.24-10.36-18.66a351.202 351.202 0 00-3.952-7.778c-1.657-3.498-2.672-6.836-3.688-10.562a317.249 317.249 0 00-2.223-5.04c-.928-2.34-1.52-4.71-2.152-7.148-.934-3.13-1.546-4.718-3.688-7.25-3.324-1.768-6.55-2.66-10.167-3.652-6.71-2.205-12.582-5.195-16.77-10.91l-3-1a133.101 133.101 0 01-3-6 748.858 748.858 0 00-4-6c-1.882-3.199-2-4.048-2-8h-2c-2.53-5.315-3.78-10.191-4.625-16l-.367-2.27c-1.98-12.977-2.195-26.076-2.193-39.175-.003-2.448-.02-4.896-.04-7.344-.027-7.66.145-14.782 2.225-22.211.288-1.83.56-3.664.813-5.5 2.782-16.737 7.84-30.273 21.187-41.5a99.703 99.703 0 016-3l1.875-2c3.617-3.404 8.183-5 13.125-5v-2l3-2 1-3h2l-.125-2.688c.124-3.285.739-5.366 2.125-8.312h2l.688-2.75c1.583-5.606 4.014-10.908 6.312-16.25h2l.375-2.75c.546-2.84 1.198-4.776 2.625-7.25h2c.1-.724.199-1.449.3-2.195.79-3.166 1.98-5.045 3.887-7.68l1.899-2.629c2.119-2.763 4.38-5.356 6.691-7.957 1.601-2.015 2.48-4.087 3.223-6.539h2v-2h2l2-4h2v-2h2v-2l2.875-1.5c4.373-2.463 8.078-5.646 11.89-8.89C300 327 300 327 303 327l1-3c6.953-5.918 16.82-11.256 26-12v-2c4.5-1.572 9.003-3.139 13.507-4.7 1.532-.532 3.064-1.065 4.595-1.6 2.2-.77 4.402-1.532 6.605-2.294l2.074-.729c2.877-.99 5.152-1.677 8.219-1.677v-2c5.987-2.404 11.41-3.292 17.828-3.691 4.441-.432 8.656-1.5 12.985-2.551 6.736-1.602 13.465-2.631 20.363-3.219l2.808-.242c1.847-.153 3.695-.295 5.543-.424C432.19 286.25 437.6 284.8 443 279h2v-2l5-1v-2c9.771-4.378 18.641-6.089 29.188-7.125a600.71 600.71 0 006.31-.663c1.877-.208 3.756-.396 5.636-.584 3.182-.35 3.182-.35 4.866-3.628.963-4.287 1.501-8.651 2.125-13 .182-1.182.364-2.364.55-3.582 1.68-10.676 1.68-10.676 1.325-21.418-2.59-2.59-4.684-3.583-8.145-4.68-4.049-1.298-4.049-1.298-5.855-2.32-1-3.187-1-3.187-1-6h-2v-2h-2l-1-5h-2c-4.473-7.77-3.197-20.836-1.23-29.32 3.08-6.772 8.855-11.699 14.23-16.68l2.059-2.29C495 154 495 154 499 154v-2c3.77-1.257 7.322-1.223 11.25-1.25z"
        fill="#FCFCFC" />
    <path
        d="M506.97 351.815c3.31 0 6.62-.007 9.93-.02 26.18-.106 52.115.484 78.056 4.437 2.263.345 4.528.674 6.794 1 10.925 1.605 10.925 1.605 13.25 2.768 2.67.207 5.326.374 8 .5 7.73.365 7.73.365 10 1.5v2l2.422.375c4.306.752 8.561 1.675 12.828 2.625l2.469.54 2.36.522 2.137.473C657 369 657 369 659 370v2h3v2l3.5.25c4.006.494 6.95 1.782 10.469 3.695 3.23 1.678 6.606 2.832 10.031 4.055v2h2c1.188 1.12 2.367 2.251 3.492 3.434a104.402 104.402 0 003.39 3.351l1.93 1.84 1.833 1.727C700 396 700 396 700 399l1.813.187c3.182 1.183 3.706 2.786 5.187 5.813.72 1.93 1.437 3.86 2.129 5.8.91 2.3 2.01 4.398 3.184 6.575 3.843 7.49 6.192 15.609 8.687 23.625.347 1.071.694 2.142 1.05 3.246 1.387 5.484 2.14 11.035 2.95 16.629.33 2.269.664 4.537 1 6.805l.438 3.023c.298 1.75.615 3.5 1.062 5.218 1.772 6.877 1.772 13.538 1.73 20.61v3.856c-.004 2.672-.01 5.345-.024 8.017-.017 3.431-.021 6.862-.02 10.293 0 3.278-.01 6.556-.018 9.834l-.003 3.744-.02 3.43-.011 3.033C729 541 729 541 728 542c-.162 2.94-.28 5.87-.375 8.812-.34 8.233-.875 16.689-4.625 24.188a128.523 128.523 0 00-.312 4.125c-.424 4.12-1.534 6.869-3.52 10.453-1.526 3.165-2.548 6.455-3.605 9.797C709.274 618.77 697.02 635.033 679 645c-2.863.723-2.863.723-5 1v2a980.736 980.736 0 01-4.375 1.5l-2.46.844C665 651 665 651 663 651v2c-13.25 5.33-25.608 8.387-39.719 10.254a192.308 192.308 0 00-10.214 1.661c-31.93 5.812-63.825 5.652-96.179 5.486-5.478-.027-10.955-.031-16.433-.03-6.04.001-12.081-.01-18.122-.025-2.52-.007-5.041-.01-7.562-.012-39.92-.05-39.92-.05-49.771-3.334a461.83 461.83 0 00-8.875-.375c-10.49-.454-20.014-2.433-29.914-5.93-3.99-1.254-8.098-1.965-12.211-2.695v-2l-3.562-.313c-4.263-.516-7.579-1.838-11.438-3.687v-2l-2.875-.375C353 649 353 649 351 647c-2.069-.643-2.069-.643-4-1v-2l-2.105-.219c-3.694-.997-6.26-2.945-9.207-5.281l-1.724-1.342c-4.302-3.431-7.98-7.183-11.476-11.443-1.394-1.827-1.394-1.827-3.488-2.715-2.229-3.878-4.072-7.966-6-12l-.93-1.923a1066.41 1066.41 0 01-2.82-5.89l-.89-1.846c-2.637-5.614-4.74-11.07-4.36-17.341h-2c-1.158-3.473-1.069-6.36-1-10h-2l-.184-2.773-.253-3.602-.247-3.586c-.127-2.954-.127-2.954-1.316-5.039a81.687 81.687 0 01-.098-4.79l.01-2.85.026-2.985.013-3.008c.012-2.456.028-4.911.049-7.367h-2c-.025-7.35-.043-14.701-.055-22.052-.005-2.502-.012-5.003-.02-7.505a4837.56 4837.56 0 01-.023-10.775l-.015-3.4v-3.154l-.007-2.78C295 486 295 486 296 483c.157-1.81.276-3.623.375-5.438.423-5.985 1.173-11.878 2.063-17.812l.37-2.506c1.212-7.897 2.908-15.585 5.192-23.244l.688-2.621.75-2.754.683-2.586L307 424l3-1 .25-2.375c1.506-7.28 3.98-13.377 9.098-18.82 2.608-2.849 4.838-5.982 7.136-9.082L328 391h2v-2a132.124 132.124 0 016.688-4.938l1.896-1.341C350.996 374 350.996 374 357 374v-2c7.66-3.08 15.45-5.262 23.448-7.249l2.392-.603 2.136-.525c2.155-.663 4.018-1.603 6.024-2.623 11.501-3.026 23.456-3.855 35.263-4.91l3.76-.344 3.342-.291c2.858-.358 5.532-.849 8.336-1.463 5.683-1.168 11.265-1.44 17.053-1.605l3.493-.113c14.904-.433 29.814-.461 44.722-.46z" />
    <path
        d="M0 552c2.1 3.15 2.247 3.913 2.273 7.508l.054 2.712.048 2.905c.237 7.723.986 14.794 2.97 22.252 1.636 6.214 2.705 12.466 3.718 18.81 1.1 14.338 1.1 14.338 5.937 26.813.2 1.968.2 1.968.402 3.977.506 4.995 1.726 9.599 3.16 14.398.464 1.57.923 3.14 1.38 4.71l.615 2.065C21 660 21 660 21 663h2l.813 3.375c2.728 10.875 6.519 21.084 10.863 31.402 1.357 3.304 2.628 6.631 3.886 9.973 2.75 8.8 2.75 8.8 8.438 15.25.594 2.649.742 5.292 1 8l3 1c1.098 2.031 1.098 2.031 2.063 4.5 1.164 3.46 1.164 3.46 3.937 5.5v4h2l.516 1.723c1.246 3.972 2.543 7.624 4.672 11.215C66 762 66 762 66 764h2l2 7h2c1.148 2.27 2.294 4.54 3.438 6.813l.986 1.947c1.368 2.723 2.61 5.344 3.576 8.24a231.38 231.38 0 003 3c1.593 2.31 3.092 4.67 4.598 7.04 1.26 2.083 1.26 2.083 3.402 2.96l1.313 2.75c1.518 3.34 1.518 3.34 4.187 5.688 2.894 2.966 3.878 5.778 5.5 9.562a141.4 141.4 0 005 5c.43.76.861 1.519 1.305 2.3 2.388 3.803 5.584 6.645 8.843 9.682 4.486 4.31 4.486 4.31 4.852 8.018l1.813.188c3.105 1.153 3.565 2.942 5.187 5.812 3.45 4.64 3.45 4.64 8 8l1.25 2.125c2.746 4.51 5.62 9.165 10.75 10.875v2h2l1 3 3 1c1.281 1.523 1.281 1.523 2.5 3.375 1.294 1.95 2.47 3.596 4.156 5.227C163 887 163 887 163 889l1.766.27c2.816.92 3.983 2.248 5.984 4.418 3.336 3.498 6.773 6.297 10.781 8.988L183 904v3l2.063.125c3.588 1.069 5.373 2.829 8.097 5.32 1.81 1.53 3.57 2.625 5.653 3.742C202 918 202 918 204 921l1.813.875C208 923 208 923 210.25 925.375c2.383 2.275 3.751 3.237 6.625 4.563 2.972 1.374 5.204 2.857 7.625 5.062 2.934 2.656 5.814 4.271 9.383 5.938 4.781 2.399 9.447 5.342 13.18 9.187 2.46 2.38 5.109 3.498 8.23 4.848C257 956 257 956 258 959l2.2.355c2.85.657 5.025 1.607 7.613 2.957l2.625 1.352L273 965c4.275 2.182 8.499 4.312 13 6v2l2.508-.238c4.495.306 7.46 1.926 11.367 4.05 5.282 2.815 10.478 5.186 16.125 7.188v2l2.3.621 3.012.817 2.989.808c1.914.535 3.813 1.125 5.699 1.754v2l1.688.332 2.312.48 2.25.458c2.94.78 5.735 1.822 8.573 2.912 3.73 1.402 7.518 2.633 11.302 3.88l2.34.776c1.5.497 3 .992 4.5 1.486 1.766.587 3.524 1.192 5.281 1.801 2.576.818 5.029 1.37 7.692 1.813 4.583.787 9.133 1.683 13.687 2.625 4.19.852 8.305 1.607 12.563 2 3.812.437 3.812.437 5.69 1.433 2.685 1.27 4.914 1.35 7.872 1.504 4.183.219 7.923.904 11.97 1.974 4.514 1.041 9.125 1.516 13.717 2.088 1.979.248 3.957.499 5.934.754l2.623.327C452 1019 452 1019 453 1020c2.183.122 4.369.18 6.555.21l4.05.087c2.136.041 4.27.078 6.406.104 2.057.028 4.112.074 6.169.122l3.741.06C483 1021 483 1021 486 1024H0V552z"
        fill="#FDFDFD" />
    <path
        d="M554 0h470v480h-1c-1.107-8.083-2.066-16.097-2.438-24.25-.243-11.059-.243-11.059-4.562-20.75a124.22 124.22 0 01-.375-5.063c-.89-11.543-3.38-22.463-6.71-33.523-1.235-4.611-1.91-9.236-2.52-13.965-.14-2.39-.14-2.39-1.395-3.449a243.956 243.956 0 01-.9-5.065c-1.244-7.55-3.172-14.42-5.893-21.595C996.097 346.5 994 340.25 994 334l-3-1c-1.387-2.836-1.387-2.836-2.688-6.375-.436-1.163-.873-2.325-1.324-3.523C986 320 986 320 986 317h-2l-.586-2.703-.789-3.547-.773-3.516c-1.055-4.006-2.006-6.413-4.977-9.296C975 296 975 296 975 293h-2l-.68-3.879c-1.233-5.55-3.684-10.128-6.445-15.058-.923-1.674-1.842-3.35-2.758-5.028l-1.23-2.207C961 265 961 265 961 263h-2l-1.172-2.414c-3.272-6.793-3.272-6.793-7.203-13.211C949 245 949 245 949 243h-2l-1.313-3.313c-1.22-2.863-2.438-4.532-4.687-6.687l-1.5-3.063c-1.316-3.167-1.316-3.167-4.5-4.937l-.898-2.3c-1.358-3.327-3.256-5.295-5.727-7.887C924 210.21 924 210.21 924 208h-2l-.938-2.813c-2.498-5.846-6.988-10.39-11.062-15.187a765.591 765.591 0 01-4.438-5.438l-1.933-2.37c-1.49-2.006-2.6-3.923-3.629-6.192h-2v-2h-2a522.49 522.49 0 01-4-5l-2.25-1.688L888 166v-2h-2a308.01 308.01 0 01-3-5 99.252 99.252 0 00-4.125-4.39l-2.39-2.4-2.485-2.46-2.484-2.508-2.391-2.383-2.18-2.172C865.01 140.79 865.01 140.79 862 140v-2h-2l-1.313-2.242c-1.886-3.083-3.82-4.707-6.687-6.883-4.814-3.682-4.814-3.682-6.5-5.43-1.956-1.884-4.17-3.054-6.5-4.445a205.612 205.612 0 01-5.5-4.375l-2.781-2.273c-2.706-2.34-5.21-4.805-7.719-7.352-3.55-3.164-7.033-5.692-11.21-7.965-1.885-1.09-3.602-2.305-5.352-3.597-2.135-1.57-3.946-2.676-6.375-3.813-3.543-1.88-6.144-4.225-9.094-6.914-1.76-1.53-3.499-2.787-5.469-4.023L783 77v-2l-1.691-.387C774.722 72.863 769.237 70.365 764 66c-3.18-1.256-3.18-1.256-6-2v-3l-1.777-.393c-3.528-.963-6.673-2.75-9.91-4.42-4.91-2.518-9.842-4.906-14.896-7.122a656.548 656.548 0 01-7.933-3.573c-.94-.43-1.882-.858-2.851-1.3a7485.94 7485.94 0 01-5.813-2.657l-2.836-1.293-2.54-1.16c-4.518-2-8.526-3.396-13.444-4.082v-2l-2-.25c-3-.75-3-.75-6.25-2.625-4.868-2.573-10.018-3.223-15.407-3.998-6.3-.945-11.743-2.827-17.468-5.69-4.56-2.014-9.482-2.284-14.383-2.906-3.865-.588-7.383-1.609-11.09-2.816-2.502-.745-4.953-1.22-7.527-1.652-6.024-1.017-11.877-2.527-17.785-4.063-10.565-2.635-21.093-3.817-31.922-4.855C565.932 3.518 560.026 2.743 554 1V0z"
        fill="#FDFEFD" />
    <path
        d="M0 0h474c-4.402 2.201-7.781 2.32-12.563 2.438-14.678.578-28.933 3.38-43.321 6.204A272.37 272.37 0 01404 11c-1.598.457-3.196.916-4.785 1.402-3.044.822-6.125 1.41-9.215 2.036-5.08 1.066-9.315 2.4-14 4.562-2.609.834-5.23 1.601-7.863 2.352-2.16.59-2.16.59-4.137 1.648-1.997.293-3.998.56-6 .813-9.699 1.365-9.699 1.365-18 6.187l-2.813.188c-4.786.612-8.614 2.968-12.84 5.18C310.75 42 310.75 42 305 42l-1 3c-4.57 3.656-10.431 4.625-16 6v2l-3.438 1.688a192.69 192.69 0 00-9.125 4.874C265.72 65 265.72 65 261 65v2l-15 6v2c-1.622.838-3.248 1.67-4.875 2.5l-2.742 1.406C236 80 236 80 234 80v2c-1.68 1.29-1.68 1.29-3.875 2.625l-2.18 1.352C226 87 226 87 224 87v2c-2.117 1.508-2.117 1.508-4.875 3.125l-2.742 1.633C214 95 214 95 212 95l-.234 1.809c-1.025 2.932-2.403 3.631-5.016 5.254l-2.469 1.558c-1.671 1.01-3.35 2.01-5.031 3.004-2.402 1.399-2.402 1.399-4.938 3.563C192 112 192 112 190 112v2c-3.787 4.112-7.815 7.7-12.625 10.563-2.388 1.316-2.388 1.316-4.063 3.124L172 129h-2v2c-1.61 1.55-1.61 1.55-3.75 3.313-3.167 2.681-5.698 5.406-8.25 8.687-3.517 3-3.517 3-6 3v2l-2.313 1.75c-2.828 2.052-2.828 2.052-4.011 5.023-1.89 3.64-4.275 6.27-7.176 9.102l-1.473 1.508C133.38 169 133.38 169 130 169v2h-2l-.625 2.688c-1.437 3.462-2.747 4.511-5.664 6.703-2.967 2.79-4.838 6.312-6.902 9.793-2.04 3.176-4.362 5.943-6.809 8.816-5.958 7.507-11.581 15.15-16.895 23.125-2.144 2.929-4.532 5.324-7.105 7.875-1.319 2.665-1.319 2.665-2 5h-2l-.75 2.063c-1.242 2.917-2.715 5.526-4.316 8.253-1.03 1.765-1.03 1.765-1.871 4.121-1.297 3.128-3.067 5.792-4.895 8.633-1.343 2.22-2.243 4.512-3.168 6.93l-2 2c-.643 2.069-.643 2.069-1 4h-2l-1 4h-2l-.875 2.688A139.917 139.917 0 0153 286h-2l-.402 1.898-.535 2.477-.528 2.46C49 295 49 295 48 297h-3l-.188 2.875c-.467 3.41-1.639 5.968-3.25 9-2.05 3.896-3.224 7.321-4.039 11.625-.66 3.158-1.542 6.22-2.46 9.313l-.965 3.269C33 336 33 336 31.445 338.059c-1.77 2.378-2.135 4.285-2.633 7.191l-.48 2.703L28 350h-2l-.297 2.238c-.938 6.362-2.37 12.052-4.695 18.04-1.35 3.648-2.314 7.362-3.293 11.124-.638 2.318-1.39 4.53-2.215 6.786-1.643 4.783-2.49 9.692-3.373 14.657a225.945 225.945 0 01-2.69 12.905c-2.114 8.965-3.538 17.881-4.19 27.07C5 445 5 445 4 447a115.936 115.936 0 00-.465 5.156l-.236 3.098c-.158 2.164-.311 4.328-.461 6.492l-.24 3.098-.203 2.85C2 470 2 470 0 472V0z"
        fill="#FDFDFD" />
    <path
        d="M1023 548h1v476H544v-1c5.675-1.087 11.373-1.488 17.125-1.938 8.024-.653 16.047-1.311 24.063-2.062l2.479-.215c4.16-.4 7.469-1.109 11.333-2.785 2.387-.379 2.387-.379 4.688-.563 3.279-.26 3.279-.26 6.312-1.437a196.46 196.46 0 015.938-.938A467.476 467.476 0 00634 1010v-2c2.208-.339 4.416-.67 6.625-1l3.727-.563A65.914 65.914 0 01654 1006v-2l1.828-.55c4.945-1.479 4.945-1.479 9.297-4.138 2.857-2 5.494-1.507 8.875-1.312v-2l3.36-.621 4.39-.817 2.21-.408c3.375-.629 6.716-1.297 10.04-2.154v-2c2.103-.672 4.207-1.337 6.313-2l3.55-1.125C707 986 707 986 710 986l1-3 9-1v-2l5-1v-2c1.769-.673 3.54-1.338 5.313-2l2.988-1.125C736 973 736 973 739 973v-2l3-1 1-2 7-2 1-2a177.927 177.927 0 017.5-3.813c1.47-.72 2.94-1.443 4.41-2.167l2.15-1.057c8.465-4.202 16.262-9.256 23.878-14.838C792 940 792 940 794 940v-2l3.375-1.563c4.497-2.22 8.416-5.05 12.426-8.046C812 927 812 927 815 927v-4c1.32-1.379 1.32-1.379 3.125-2.563l1.938-1.28c2.572-1.536 5.258-2.818 7.937-4.157l2.688-2.188C833 911 833 911 836 911v-3c1.836-1.727 1.836-1.727 4.375-3.625 4.678-3.595 9.058-7.4 13.398-11.395C856 891 856 891 858.227 889.426c2.064-1.396 2.064-1.396 2.773-4.426h2v-2c1.66-1.012 3.327-2.01 5-3a115.599 115.599 0 004.766-4.5l2.699-2.691L878.25 870l2.738-2.715c5.338-5.353 10.287-10.868 14.988-16.79 2.066-2.547 4.234-4.963 6.462-7.37 5.24-5.754 9.908-11.895 14.562-18.125l1.707-2.277c1.881-2.565 3.28-4.685 4.293-7.723l2.344-1.863c2.797-2.25 4.292-4.278 6.156-7.324l1.785-2.907A331.62 331.62 0 00940 791h2l.758-1.605c1.557-3.003 3.329-5.836 5.117-8.707 5.38-8.665 5.38-8.665 10.125-17.688h2l.75-1.938c1.937-4.745 3.957-9.476 6.25-14.062h2l.25-2.5c.767-3.579 1.97-6.127 3.66-9.328 1.098-2.189 1.975-4.382 2.84-6.672a84.495 84.495 0 014.21-9.273c4.252-8.038 7.34-14.984 8.04-24.227h2v-3h2l.332-2.668.48-3.52.458-3.48c.73-3.332.73-3.332 2.207-5.781 1.94-3.25 2.479-6.498 3.086-10.176 1.18-6.99 1.18-6.99 3.437-10.375.558-2.171.943-4.345 1.34-6.55.66-2.45.66-2.45 2.097-5.212 1.86-3.853 2.736-7.574 3.625-11.738 1.739-7.945 1.739-7.945 2.965-11.363 1.683-5.426 2.134-11.077 2.828-16.701l.364-2.76.31-2.503C1016 597 1016 597 1018 594c.536-2.671.536-2.671.816-5.707l.376-3.449.37-3.657.395-3.703c.761-7.287 1.435-14.566 1.832-21.882.21-2.599.647-5.059 1.211-7.602z"
        fill="#FEFEFE" />
    <path
        d="M620.688 472.125c4.054 2.414 6.772 4.896 9.312 8.875v4h2c2.403 10.097 3.56 19.685 3.556 30.054.007 2.21.061 4.416.118 6.626.105 9.01-1.172 15.879-6.674 23.32l-2 2h-3l-.688 1.875c-1.779 2.881-3.071 3.152-6.312 4.125-2.834.19-5.545.28-8.375.25l-2.21.023c-7.533-.026-13.31-1.47-18.911-6.632-2.146-2.342-3.339-4.698-4.504-7.641l-1.125-2.813c-2.113-7.698-2.032-15.63-2-23.562l-.012-2.922c.019-13.835.503-24.036 9.809-34.723 8.171-6.95 21.488-7.29 31.015-2.855zM431 472c2.875 2.563 2.875 2.563 5 5l2 2v4h2c6.896 16.1 5.098 35.967 3 53h-2v4h-2l-.563 2.125c-2.308 4.617-6.055 7.61-10.585 10.016-7.326 2.207-17.737 2.794-24.735-.496-2.031-1.75-3.56-3.469-5.117-5.645l-2.25-2.625c-5.215-10.058-6.348-19.875-6.125-31.063l.004-3.76C389.755 495.348 391.44 482.81 401 473h2v-2c9.296-2.438 19.276-4.036 28 1z"
        fill="#FBFBFB" />
</svg>